<svg xmlns="http://www.w3.org/2000/svg" xmlns:xlink="http://www.w3.org/1999/xlink" version="1.1" width="256" height="256" viewBox="0 0 256 256" xml:space="preserve">

<defs>
</defs>
<g style="stroke: none; stroke-width: 0; stroke-dasharray: none; stroke-linecap: butt; stroke-linejoin: miter; stroke-miterlimit: 10; fill: none; fill-rule: nonzero; opacity: 1;" transform="translate(1.4065934065934016 1.4065934065934016) scale(2.81 2.81)" >
	<path d="M 89.055 24.974 c -0.588 -0.365 -1.323 -0.4 -1.942 -0.093 L 66.146 35.266 v -16.81 c 0 -2.507 -2.04 -4.547 -4.547 -4.547 H 4.547 C 2.04 13.909 0 15.949 0 18.456 v 53.088 c 0 2.507 2.04 4.547 4.547 4.547 h 57.052 c 2.507 0 4.547 -2.04 4.547 -4.547 V 54.735 l 20.967 10.384 c 0.28 0.139 0.584 0.208 0.888 0.208 c 0.367 0 0.732 -0.101 1.055 -0.301 C 89.643 64.662 90 64.019 90 63.327 V 26.673 C 90 25.981 89.643 25.338 89.055 24.974 z M 62.146 71.544 c 0 0.302 -0.245 0.547 -0.547 0.547 H 4.547 C 4.245 72.091 4 71.846 4 71.544 V 18.456 c 0 -0.302 0.245 -0.547 0.547 -0.547 h 57.052 c 0.302 0 0.547 0.245 0.547 0.547 v 20.032 v 13.025 V 71.544 z M 86 60.104 l -19.854 -9.833 V 39.729 L 86 29.896 V 60.104 z" style="stroke: none; stroke-width: 1; stroke-dasharray: none; stroke-linecap: butt; stroke-linejoin: miter; stroke-miterlimit: 10; fill: rgb(0,0,0); fill-rule: nonzero; opacity: 1;" transform=" matrix(1 0 0 1 0 0) " stroke-linecap="round" />
	<path d="M 41.447 43.796 l -15.874 -9.775 c -0.942 -0.58 -2.155 0.098 -2.155 1.204 v 19.55 c 0 1.106 1.213 1.784 2.155 1.204 l 15.874 -9.775 C 42.344 45.651 42.344 44.348 41.447 43.796 z" style="stroke: none; stroke-width: 1; stroke-dasharray: none; stroke-linecap: butt; stroke-linejoin: miter; stroke-miterlimit: 10; fill: rgb(0,0,0); fill-rule: nonzero; opacity: 1;" transform=" matrix(1 0 0 1 0 0) " stroke-linecap="round" />
</g>
</svg>